<svg xmlns="http://www.w3.org/2000/svg" width="1600" height="1000" viewBox="0 0 1600 1000" preserveAspectRatio="none"><defs><filter id="noise"><feTurbulence type="fractalNoise" baseFrequency="0.75 0.045" numOctaves="5" seed="17"/><feColorMatrix type="matrix" values="0.16 0 0 0 0  0 0.16 0 0 0  0 0 0.16 0 0  0 0 0 .42 0"/></filter><linearGradient id="v" x1="0" y1="0" x2="0" y2="1"><stop stop-color="#2b2d2b" offset="0"/><stop stop-color="#080808" offset="0.36"/><stop stop-color="#050505" offset="1"/></linearGradient><pattern id="scratches" width="1600" height="10" patternUnits="userSpaceOnUse"><path d="M0 1H1600M0 4H1600M0 8H1600" stroke="white" stroke-opacity=".105" stroke-width=".55"/></pattern></defs><rect width="1600" height="1000" fill="url(#v)"/><rect width="1600" height="1000" filter="url(#noise)" opacity=".62"/><rect width="1600" height="1000" fill="url(#scratches)" opacity=".64"/><g opacity=".13" stroke="white" stroke-width=".65"><path d="M-40 106C270 75 370 129 680 98S1120 82 1660 48"/><path d="M-80 312C210 300 470 332 780 284s520-4 920-52"/><path d="M-60 566C320 520 570 586 830 538s430-42 820-22"/><path d="M-30 798C250 770 500 814 920 776s530-30 760-2"/></g><rect width="1600" height="1000" fill="black" opacity=".32"/></svg>