<svg xmlns="http://www.w3.org/2000/svg" width="1200" height="630" viewBox="0 0 1200 630" role="img" aria-labelledby="title desc">
<title id="title">Workflow-Centric AI Governance</title><desc id="desc">Museum-grade social image for Part I: ALTRION four-gate workflow governance.</desc>
<defs><radialGradient id="bg" cx="69%" cy="35%" r="84%"><stop offset="0" stop-color="#31291d"/><stop offset=".44" stop-color="#090b0a"/><stop offset="1" stop-color="#020303"/></radialGradient><linearGradient id="gold" x1="0" y1="0" x2="1" y2="0"><stop offset="0" stop-color="#725831"/><stop offset=".5" stop-color="#f4dfa0"/><stop offset="1" stop-color="#725831"/></linearGradient><filter id="grain"><feTurbulence type="fractalNoise" baseFrequency=".88" numOctaves="3"/><feColorMatrix type="saturate" values="0"/><feComponentTransfer><feFuncA type="table" tableValues="0 .12"/></feComponentTransfer></filter><filter id="shadow"><feDropShadow dx="0" dy="18" stdDeviation="22" flood-color="#000" flood-opacity=".55"/></filter></defs>
<rect width="1200" height="630" fill="url(#bg)"/><rect width="1200" height="630" filter="url(#grain)" opacity=".56"/><path d="M58 54h1084v522H58z" fill="none" stroke="#d8bf7b" stroke-opacity=".24"/><path d="M84 82h1032v466H84z" fill="none" stroke="#d8bf7b" stroke-opacity=".08"/>
<g filter="url(#shadow)"><rect x="714" y="112" width="360" height="394" rx="2" fill="#060706" stroke="#d8bf7b" stroke-opacity=".26"/><g fill="none" stroke="#d8bf7b"><path d="M894 140v330" stroke-opacity=".18"/><rect x="766" y="158" width="256" height="54" rx="3" stroke-opacity=".34"/><rect x="766" y="236" width="256" height="54" rx="3" stroke-opacity=".34"/><rect x="766" y="314" width="256" height="54" rx="3" stroke-opacity=".34"/><rect x="766" y="392" width="256" height="54" rx="3" stroke-opacity=".34"/><path d="M894 212v24M894 290v24M894 368v24" stroke="url(#gold)"/><path d="M742 474h304" stroke="url(#gold)" opacity=".58"/></g><g fill="#c9aa63" font-family="Inter, Arial, sans-serif" font-size="11" letter-spacing="2"><text x="792" y="190">G1 / CONSTRAINT</text><text x="792" y="268">G2 / VALUE TENSION</text><text x="792" y="346">G3 / TEMPORAL RELIABILITY</text><text x="792" y="424">G4 / HUMAN ARBITRATION</text><text x="804" y="496">ADR / AUDITABLE DECISION RECORD</text></g></g>
<text x="94" y="124" fill="#c9aa63" font-family="Inter, Arial, sans-serif" font-size="15" letter-spacing="6">PART I / COGNITIVE FIREWALL</text>
<text x="94" y="232" fill="#f7edd6" font-family="Georgia, 'Times New Roman', serif" font-size="63" letter-spacing="-1.6">Workflow-Centric</text><text x="94" y="304" fill="#f7edd6" font-family="Georgia, 'Times New Roman', serif" font-size="63" letter-spacing="-1.6">AI Governance</text>
<path d="M98 346h510" stroke="url(#gold)" opacity=".70"/>
<text x="98" y="392" fill="#d8d0bd" font-family="Inter, Arial, sans-serif" font-size="23">Oversight survives only when the route is designed.</text>
<text x="98" y="428" fill="#d8d0bd" font-family="Inter, Arial, sans-serif" font-size="23">Structured friction keeps human agency visible.</text>
<text x="94" y="536" fill="#b8a06a" font-family="Inter, Arial, sans-serif" font-size="14" letter-spacing="4">BASELINE CONSTRAINTS / VALUE TENSION / TEMPORAL CONTEXT / ADR</text></svg>