<svg xmlns="http://www.w3.org/2000/svg" width="1200" height="630" viewBox="0 0 1200 630" role="img" aria-labelledby="title desc">
<title id="title">Detecting Silent Governance Failure</title><desc id="desc">Museum-grade social image for Part III: Resolution Collapse, GDIs, Circuit Breakers, and Proper Ending.</desc>
<defs><radialGradient id="bg" cx="70%" cy="38%" r="86%"><stop offset="0" stop-color="#28231b"/><stop offset=".42" stop-color="#070909"/><stop offset="1" stop-color="#020303"/></radialGradient><linearGradient id="gold" x1="0" y1="0" x2="1" y2="0"><stop offset="0" stop-color="#725831"/><stop offset=".5" stop-color="#f3dda0"/><stop offset="1" stop-color="#725831"/></linearGradient><filter id="grain"><feTurbulence type="fractalNoise" baseFrequency=".92" numOctaves="3"/><feColorMatrix type="saturate" values="0"/><feComponentTransfer><feFuncA type="table" tableValues="0 .13"/></feComponentTransfer></filter><filter id="shadow"><feDropShadow dx="0" dy="18" stdDeviation="22" flood-opacity=".58"/></filter></defs>
<rect width="1200" height="630" fill="url(#bg)"/><rect width="1200" height="630" filter="url(#grain)" opacity=".57"/><path d="M58 54h1084v522H58z" fill="none" stroke="#d8bf7b" stroke-opacity=".23"/><path d="M84 82h1032v466H84z" fill="none" stroke="#d8bf7b" stroke-opacity=".075"/>
<g filter="url(#shadow)"><rect x="718" y="118" width="344" height="374" fill="#050606" stroke="#d8bf7b" stroke-opacity=".24"/><g fill="none" stroke="#d8bf7b"><path d="M784 172h212M784 222h212M784 272h212" stroke-opacity=".13"/><path d="M784 172c94 0 148 50 212 150" stroke-opacity=".36"/><path d="M784 222c80 0 132 34 178 112" stroke-opacity=".20"/><path d="M784 272c58 0 96 18 124 56" stroke-opacity=".12"/><path d="M760 374h260" stroke="url(#gold)" stroke-width="2" opacity=".75"/><path d="M890 334v84" stroke="url(#gold)" stroke-width="2" opacity=".75"/><rect x="828" y="418" width="124" height="34" stroke="url(#gold)" stroke-opacity=".65"/></g><g font-family="Inter, Arial, sans-serif" font-size="10.5" letter-spacing="2" fill="#c9aa63" opacity=".85"><text x="782" y="158">SEMANTIC ENTROPY DECAY</text><text x="782" y="208">TEMPORAL COMPRESSION</text><text x="782" y="258">EXHAUSTION OF DISSENT</text><text x="784" y="404">CIRCUIT BREAKER</text><text x="826" y="474">PROPER ENDING</text></g></g>
<text x="94" y="124" fill="#c9aa63" font-family="Inter, Arial, sans-serif" font-size="15" letter-spacing="6">PART III / SILENT GOVERNANCE FAILURE</text>
<text x="94" y="226" fill="#f7edd6" font-family="Georgia, 'Times New Roman', serif" font-size="58" letter-spacing="-1.4">Detecting Silent</text><text x="94" y="296" fill="#f7edd6" font-family="Georgia, 'Times New Roman', serif" font-size="58" letter-spacing="-1.4">Governance Failure</text>
<path d="M98 338h510" stroke="url(#gold)" opacity=".70"/>
<text x="98" y="386" fill="#d8d0bd" font-family="Inter, Arial, sans-serif" font-size="23">The most dangerous state is not conflict,</text><text x="98" y="422" fill="#d8d0bd" font-family="Inter, Arial, sans-serif" font-size="23">but seamlessness.</text>
<text x="94" y="536" fill="#b8a06a" font-family="Inter, Arial, sans-serif" font-size="14" letter-spacing="4">RESOLUTION COLLAPSE / GDI / MEMORY PRESERVED / AUTHORITY RETURNED</text></svg>