<svg xmlns="http://www.w3.org/2000/svg" width="1200" height="630" viewBox="0 0 1200 630" role="img" aria-labelledby="title desc">
<title id="title">Forecasting Failure</title><desc id="desc">Museum-grade social image for Part II: organizational entropy and pre-abuse failure.</desc>
<defs><radialGradient id="bg" cx="70%" cy="38%" r="86%"><stop offset="0" stop-color="#2a2218"/><stop offset=".43" stop-color="#080a09"/><stop offset="1" stop-color="#020303"/></radialGradient><linearGradient id="gold" x1="0" y1="0" x2="1" y2="1"><stop offset="0" stop-color="#f2db93"/><stop offset=".5" stop-color="#76603a"/><stop offset="1" stop-color="#f0d995"/></linearGradient><filter id="grain"><feTurbulence type="fractalNoise" baseFrequency=".9" numOctaves="3"/><feColorMatrix type="saturate" values="0"/><feComponentTransfer><feFuncA type="table" tableValues="0 .13"/></feComponentTransfer></filter><filter id="shadow"><feDropShadow dx="0" dy="18" stdDeviation="22" flood-opacity=".55"/></filter></defs>
<rect width="1200" height="630" fill="url(#bg)"/><rect width="1200" height="630" filter="url(#grain)" opacity=".56"/><path d="M58 54h1084v522H58z" fill="none" stroke="#d8bf7b" stroke-opacity=".23"/><path d="M84 82h1032v466H84z" fill="none" stroke="#d8bf7b" stroke-opacity=".08"/>
<g filter="url(#shadow)"><rect x="704" y="118" width="374" height="374" fill="#060706" stroke="#d8bf7b" stroke-opacity=".22"/><g fill="none" stroke="#d8bf7b" stroke-linecap="round"><path d="M744 178h292" stroke-opacity=".34"/><path d="M744 246h256" stroke-opacity=".27"/><path d="M744 314h214" stroke-opacity=".20"/><path d="M744 382h162" stroke-opacity=".15"/><path d="M744 450h98" stroke-opacity=".10"/><path d="M742 178c164 6 252 78 294 216" stroke="url(#gold)" stroke-opacity=".42"/><path d="M1014 158c-24 132-70 222-174 306" stroke="#d8bf7b" stroke-opacity=".18"/></g><g font-family="Inter, Arial, sans-serif" font-size="11" letter-spacing="2" fill="#c9aa63" opacity=".86"><text x="758" y="166">COGNITIVE EXTERNALIZATION</text><text x="758" y="234">RESPONSIBILITY INVERSION</text><text x="758" y="302">ORGANIZATIONAL ENTROPY</text><text x="758" y="370">LEGIBILITY CAPTURE</text><text x="758" y="478">LOW-ENERGY ROUTINE</text></g></g>
<text x="94" y="124" fill="#c9aa63" font-family="Inter, Arial, sans-serif" font-size="15" letter-spacing="6">PART II / PRE-ABUSE FAILURE</text>
<text x="94" y="245" fill="#f7edd6" font-family="Georgia, 'Times New Roman', serif" font-size="78" letter-spacing="-2">Forecasting</text><text x="94" y="326" fill="#f7edd6" font-family="Georgia, 'Times New Roman', serif" font-size="78" letter-spacing="-2">Failure</text>
<path d="M98 366h510" stroke="url(#gold)" opacity=".70"/>
<text x="98" y="412" fill="#d8d0bd" font-family="Inter, Arial, sans-serif" font-size="23">The primary threat is not the rogue actor,</text><text x="98" y="448" fill="#d8d0bd" font-family="Inter, Arial, sans-serif" font-size="23">but the routine bureaucrat.</text>
<text x="94" y="536" fill="#b8a06a" font-family="Inter, Arial, sans-serif" font-size="14" letter-spacing="4">COGNITIVE ECONOMY / NORMALIZATION OF DEVIANCE / LEGIBILITY CAPTURE</text></svg>