<svg xmlns="http://www.w3.org/2000/svg" viewBox="0 0 882.88 777.26" preserveAspectRatio="xMidYMid meet">
  <g transform="translate(-59.87 778.13) scale(1 -1)">
    <path d="M859 41 857 43 849 41Q859 48 867.5 55.0Q876 62 880 72V86L876 96Q835 124 789.0 138.0Q743 152 698 167L684 152H679L674 143L641 122V117Q620 105 597.5 98.0Q575 91 546 93L499 110V115L480 126Q475 133 474.0 140.5Q473 148 473 157L487 195Q513 209 541.5 217.5Q570 226 603 226L681 219Q691 238 693.0 260.5Q695 283 695 307Q693 321 690.5 336.5Q688 352 676 363Q665 368 654.0 370.5Q643 373 634 382Q627 392 623.5 402.5Q620 413 620 427L643 534H639Q598 513 559.0 489.0Q520 465 480 442V437L451 416V408Q458 399 459.5 386.0Q461 373 461 359L444 318H439L437 311L416 304L404 309L364 359L359 378L392 420H385L340 411Q425 437 498.5 492.5Q572 548 657 581Q662 608 663.5 636.0Q665 664 665 693L653 724L648 726L634 738H653L684 721Q707 700 707.0 668.0Q707 636 707 605H719Q738 612 760.5 615.5Q783 619 807 617Q821 615 833.0 607.5Q845 600 854 591L866 560Q864 546 855.5 533.0Q847 520 840 508Q826 494 808.0 482.0Q790 470 771 461L745 458L714 470L712 477H707L691 508H684Q674 484 668.0 458.0Q662 432 657 406L717 378V373L731 363Q743 344 746.5 323.0Q750 302 748 278Q745 257 738.0 238.0Q731 219 726 200Q767 186 806.0 174.0Q845 162 878 131L880 124H885V117H890Q895 107 899.5 97.5Q904 88 902 77L892 58Q885 51 875.5 48.5Q866 46 859 41ZM136 131V133L129 138Q119 150 109.5 163.0Q100 176 100 193L108 212H110Q112 205 113.5 195.5Q115 186 124 181L148 179Q207 285 251.0 400.0Q295 515 333 631H328Q321 624 311.5 618.0Q302 612 292 608L257 605L240 615L233 629L255 619Q278 627 298.5 640.0Q319 653 337 667L342 679L373 681L399 672V664L385 636H380Q337 560 306.5 480.5Q276 401 245 321L264 290L271 288L285 323V290L283 252L292 221L288 209H266L240 238L236 271L238 278L236 290H231Q214 252 197.5 213.0Q181 174 157 138H150V133ZM620 141 657 174V181Q629 186 599.5 191.5Q570 197 539 197Q529 195 521.0 191.5Q513 188 506 179L503 145L511 136Q529 133 547.0 128.5Q565 124 586 126ZM425 363 428 378 423 394H418L404 371L423 361ZM764 515Q778 522 792.5 535.0Q807 548 814 565V577Q804 586 790.0 585.0Q776 584 762 584L703 567L695 539Q707 529 720.0 521.0Q733 513 750 510Z" fill="#000"/>
  </g>
</svg>
