<svg xmlns="http://www.w3.org/2000/svg" viewBox="0 0 575.30 949.30" preserveAspectRatio="xMidYMid meet">
  <g transform="translate(-253.85 853.15) scale(1 -1)">
    <path d="M566 -53 567 -35 577 -20H579Q609 27 628.5 79.5Q648 132 652 191L647 192L613 185L592 191V194Q576 195 567.0 208.0Q558 221 546 231L539 238L537 269Q539 289 549.5 305.0Q560 321 575 336L587 347L617 349Q628 346 637.0 341.0Q646 336 652 327L661 317Q669 297 675.5 277.5Q682 258 683 237H688L722 274L726 273Q736 287 740.5 302.5Q745 318 745 336L727 378L704 383Q684 381 661.5 377.5Q639 374 617 378L612 381L602 393L603 397L596 400V405H591Q583 422 581.0 441.5Q579 461 583 481L589 502H584L573 498L572 494L558 490Q555 481 546.0 474.5Q537 468 532 459L518 444Q486 418 463.0 385.5Q440 353 415 320L409 307H405Q398 287 387.0 267.5Q376 248 365 230L360 228L357 210L347 204L336 184L329 177H324L325 182L320 183L319 172H313L314 181L307 182L297 209Q368 310 430.0 418.0Q492 526 547 635H542L514 624V619L494 606L474 601L473 597L422 584L409 592L386 623L388 644L458 705Q473 716 486.5 729.5Q500 743 510 757L513 769H509V775H504L495 774L466 810L481 809Q499 802 517.0 795.5Q535 789 551 777L566 762V755H570V751L565 737Q553 738 543.0 730.5Q533 723 521 722V717Q499 709 478.0 699.0Q457 689 438 673Q428 664 421.0 652.0Q414 640 413 626H418L427 618Q464 639 502.5 656.5Q541 674 584 683L608 670L610 642H613V637L606 638L589 605L582 603L574 583H570Q561 559 547.5 537.5Q534 516 523 495H528L535 503Q553 515 569.5 523.5Q586 532 607 530L620 520L633 516L632 494Q625 481 622.5 466.0Q620 451 617 437L618 430L615 421Q617 414 621.0 411.0Q625 408 636 409Q652 415 669.0 415.5Q686 416 704 413Q720 410 735.5 404.5Q751 399 764 388Q768 379 772.5 370.0Q777 361 773 350L781 341V332L785 331L786 308Q783 289 775.0 275.0Q767 261 755 248L750 249L749 242L730 223L705 204L691 200L686 191L689 198H687L680 196L651 93H647L633 62L628 47H626L620 28L615 29Q607 8 592.5 -13.0Q578 -34 566 -53ZM651 216 654 218Q653 246 647.0 271.5Q641 297 626 319L611 330L578 311L562 280H559V278H557L553 244L565 237V232L615 215L622 217L640 213Z" fill="#000"/>
  </g>
</svg>
