<svg xmlns="http://www.w3.org/2000/svg" viewBox="0 0 546.50 984.50" preserveAspectRatio="xMidYMid meet">
  <g transform="translate(-278.25 866.75) scale(1 -1)">
    <path d="M390 -72 328 -41 323 -21Q439 -16 548.5 -5.0Q658 6 780 45L779 40L765 9L758 8L748 -12Q724 -24 700.0 -30.0Q676 -36 651 -45L643 -41L617 -47L616 -54L617 -44H612L609 -55L597 -49L585 -53L584 -57L585 -51L578 -50V-54L573 -53L570 -59L563 -57L555 -60L554 -63H553L544 -59L541 -63L542 -61H537L512 -69L523 -66L516 -64L511 -66L486 -50L504 -65L435 -71L436 -73ZM510 112 483 125 476 135 455 138V143H450L426 119V122L436 145H429V150L422 155Q409 166 403.0 179.0Q397 192 396 208Q405 244 428.0 275.5Q451 307 466 341Q450 354 438.5 370.5Q427 387 430 412L482 496H468L428 490Q411 494 393.5 498.5Q376 503 360 514L353 533H358L398 527Q439 540 477.5 560.0Q516 580 554 600Q555 607 561.5 608.0Q568 609 575 609L609 596L612 577L595 568Q587 545 572.5 527.5Q558 510 542 492L534 490Q527 473 517.0 457.5Q507 442 498 427L475 393H470L471 379L483 367H490Q513 396 537.5 424.5Q562 453 593 470L618 473L653 460L655 453Q642 417 624.5 381.5Q607 346 587 312L580 310V300L602 287L612 277Q616 268 621.5 258.5Q627 249 627 237Q624 213 620.0 192.0Q616 171 600 154L589 148V144L579 141V137L533 119L532 114ZM552 156Q569 172 579.0 192.0Q589 212 589 236L574 267L569 269L558 274L492 192H487L469 161Q487 163 505.5 157.5Q524 152 540 150L547 155L550 153ZM451 169 468 199H473Q474 210 483.5 218.5Q493 227 495 239L503 242L504 254L516 266H521L528 285H532L531 297L491 322Q475 289 459.0 254.0Q443 219 442 179L449 167ZM550 329Q564 357 578.0 385.5Q592 414 596 444H591L560 415L546 400L541 399L509 347L548 326ZM480 702V705L488 740L472 745L469 752L433 779L426 782V786L397 807L392 814H402L403 821L408 822Q435 810 462.5 803.5Q490 797 516 788V784Q532 781 545.5 772.0Q559 763 572 752H564V742L573 730H568L567 737H562L558 730L551 728V718H548Q541 723 531.5 723.5Q522 724 513 727L496 709Z" fill="#000"/>
  </g>
</svg>
